<svg
  xmlns="http://www.w3.org/2000/svg"
  version="1.1"
  xmlns:xlink="http://www.w3.org/1999/xlink"
  xmlns:svgjs="http://svgjs.dev/svgjs"
  width="308.7612359841165"
  height="304.915625"
  viewBox="0 0 2000 2250"
><g transform="matrix(1,0,0,1,3.410605131648481e-13,0)"><svg
      viewBox="0 0 320 360"
      data-background-color="#ffffff"
      preserveAspectRatio="xMidYMid meet"
      height="2250"
      width="2000"
      xmlns="http://www.w3.org/2000/svg"
      xmlns:xlink="http://www.w3.org/1999/xlink"
    ><g id="tight-bounds" transform="matrix(1,0,0,1,0,0)"><svg
          viewBox="0 0 320 360"
          height="360"
          width="320"
        ><g><svg /></g><g><svg viewBox="0 0 320 360" height="360" width="320"><g
              ><path
                  xmlns="http://www.w3.org/2000/svg"
                  d="M20.961 227.22l3.726 4.658-1.863-6.056c-0.466-2.795-3.726 0.466-1.863 1.398M25.153 224.425c1.397 2.329 2.795 4.658 2.795 6.987 0 3.261 2.795 4.658 5.123 5.589-3.261-3.726-5.124-13.974-7.918-12.576M204.017 26.929c7.918 0 15.371-0.932 23.756 0.931 20.495 5.124 37.729 15.371 49.374 29.811l32.606 52.169c1.397 13.042 4.192 27.482 3.726 43.319 3.261 0 2.795-4.658 6.521-5.59-3.726 9.316-5.59 20.961-6.521 34.469-2.329-7.453 0-18.632 0.466-24.687-3.261 5.124-5.124 1.397-5.124-0.932 0.466-3.726-1.397-3.261-2.795-4.658-5.124-4.658-8.384-9.782-12.11-17.7 2.329-6.055 2.795-14.905-4.658-19.563-2.329-1.397-5.124-3.726-6.521-7.453-1.863-5.124-5.124-11.179-4.193-19.097 0.466-2.329-6.987 5.124-11.179 1.863-18.166-12.576-36.332-27.016-58.224-39.127-11.645 0-20.029-4.192-24.221-9.316-3.726-4.658-0.932-10.713 4.658-11.179 3.261 0 6.987-0.932 9.782 0.932 0.466-1.863 2.329-4.192 4.657-4.192M157.904 16.215l0.932 0.466c4.658 0.932 6.987 7.453 12.11 5.124 0 3.261 0.466 6.521-0.466 8.85-1.397 3.726-5.59 3.726-8.85 3.726-31.208-1.863-49.374 11.179-68.471 22.358-5.124 3.261-10.713 5.59-14.906 9.782-20.029 18.632-41.921 35.866-47.045 70.335l-4.192 38.195c-0.466 4.192-5.124 8.384-4.192 13.508l3.26 22.824c-3.261-3.261-5.124 0.932-4.192 2.795 0.466 1.397 2.329 6.055 5.124 1.863 3.726 6.987 7.453 20.495 12.576 26.55 15.837 18.632 36.332 35.4 53.101 52.169 4.192-0.932 7.453-0.932 8.384-3.727 1.397 2.795-1.397 5.59-3.726 6.056 7.453 4.658 15.837 8.85 27.016 9.781 14.44 0.932 27.948 3.261 40.524 6.522 6.521-1.863 13.042-2.795 20.029-3.261 2.329 0 3.726-3.726 6.521-4.658l0.466-4.658c2.795 4.192 2.329-1.397 0.466-4.192 3.261 2.795 4.192 5.124 5.589 6.987 0-1.397 3.726-6.521 3.727-0.466l0.931-6.055c1.397-0.932 1.863 5.124 3.261 0.931 1.397-4.192 4.192-0.932 6.987-2.329-0.932 1.863-0.466 5.59 2.794 3.261l3.727-3.261c2.329 5.59 6.055 3.261 7.918 2.329 20.495-13.042 40.99-28.413 60.553-43.784l-0.466 6.055 2.329-7.453c2.329 2.329 4.192 0.466 5.124-0.931 2.795-4.658 6.521-9.316 12.577-13.508-7.453 20.029-16.303 35.866-27.482 48.908l-4.658 5.59c0 3.261-0.932 7.453-4.658 7.918-1.863 0.466-5.59-0.932-8.384 1.863-1.397 1.863 3.261 5.59-0.466 2.795-3.261-2.329-6.521 0-10.248 0.932-2.795 0.932 1.863 3.726 2.795 5.589 0.932 1.863 1.863 3.726 1.398 6.056l-5.124-5.59c-6.055 3.261-9.782 9.316-14.906 13.974-2.329 1.863-1.397 5.124-1.397 7.918-3.261 0-6.987-0.932-8.85 0.932-1.397 1.863-0.932 4.658-0.932 7.453-4.658-0.466-5.124-7.453-9.315-6.056-4.192 0.932-8.85 1.397-12.577 3.727 2.795 5.59-4.658 2.329-3.726 3.26-6.987-4.192-13.042-7.453-20.495-4.658-15.837-5.124-35.4-2.795-49.84-0.931 0-2.329 0.466-4.658-0.466-5.124-0.932 2.329-3.726 1.397-3.26 1.397-8.85-6.055-17.7-9.782-27.016-14.905-8.384 0.932-16.303-3.261-18.632-5.59-6.521-6.055-13.974-2.795-20.029-4.192-13.042-3.261-17.7-16.769-19.098-26.084-0.932-4.658-4.658-6.521-6.055-6.056-6.055-19.563-15.371-37.263-22.824-55.429-1.863-4.658-1.397-9.316-1.397-14.44 2.329 0.932 4.658 0.466 4.192-2.794-2.329-15.371-7.918-27.016-13.974-38.195 3.261-15.837 3.726-34.469 11.179-48.443 6.521-12.576 18.632-19.098 27.016-29.811 2.795-3.726 2.795-8.85 5.59-12.11 9.316-9.316 18.632-19.098 28.879-27.482 4.658-3.726 10.247 0 17.234-1.397 2.329-8.384 11.645-15.837 20.495-13.508 3.726 0.932 11.179-8.85 13.508-9.782 3.726-1.397 1.863 3.726 1.863 6.987 8.85-6.987 20.961-10.713 32.14-14.906"
                  fill="#e8453d"
                  fill-rule="nonzero"
                  stroke="none"
                  stroke-width="1"
                  stroke-linecap="butt"
                  stroke-linejoin="miter"
                  stroke-miterlimit="10"
                  stroke-dasharray=""
                  stroke-dashoffset="0"
                  font-family="none"
                  font-weight="none"
                  font-size="none"
                  text-anchor="none"
                  style="mix-blend-mode: normal"
                  data-fill-palette-color="tertiary"
                /></g><g transform="matrix(1,0,0,1,64,93.82392876156335)"><svg
                  viewBox="0 0 192 172.3521424768733"
                  height="172.3521424768733"
                  width="192"
                ><g><svg
                      viewBox="0 0 192 172.3521424768733"
                      height="172.3521424768733"
                      width="192"
                    ><g><svg
                          viewBox="0 0 192.00000000000003 172.35214247687333"
                          height="172.3521424768733"
                          width="192"
                        ><g transform="matrix(1,0,0,1,0,103.5516382222247)"><svg
                              viewBox="0 0 192.00000000000003 68.80050425464862"
                              height="68.80050425464862"
                              width="192.00000000000003"
                            ><g><svg
                                  viewBox="0 0 192.00000000000003 68.80050425464862"
                                  height="68.80050425464862"
                                  width="192.00000000000003"
                                  id="textblock"
                                ><g><svg
                                      viewBox="0 0 192.00000000000003 68.80050425464862"
                                      height="68.80050425464862"
                                      width="192.00000000000003"
                                    ><g transform="matrix(1,0,0,1,0,0)"><svg
                                          width="192.00000000000003"
                                          viewBox="1.7999999523162842 -43.650001525878906 158.63999938964844 56.85000228881836"
                                          height="68.80050425464862"
                                          data-palette-color="#ff585f"
                                        ><path
                                            d="M13.65-34.3L13.65-4.95Q13.65-2.95 13.78-1.28 13.9 0.4 14.1 1L14.1 1 4.85 13.2 3.2 11.9Q6 8.3 6.98 5.8 7.95 3.3 7.95-0.35L7.95-0.35 7.95-35.55 1.8-37.55 2.7-39.3 18.4-39.3 18.4-38 13.65-34.3ZM39.55-27Q42.8-27 45.35-25.28 47.9-23.55 49.35-20.6 50.8-17.65 50.8-14.1L50.8-14.1Q50.8-10.25 48.5-6.88 46.2-3.5 42.72-1.5 39.25 0.5 36 0.5L36 0.5Q32.8 0.5 30.22-1.2 27.65-2.9 26.2-5.85 24.75-8.8 24.75-12.35L24.75-12.35Q24.75-16.2 27.05-19.6 29.35-23 32.82-25 36.3-27 39.55-27L39.55-27ZM36.65-23.1Q30.7-23.1 30.7-14.75L30.7-14.75Q30.7-9.9 32.8-6.65 34.9-3.4 38.9-3.4L38.9-3.4Q44.8-3.4 44.8-11.75L44.8-11.75Q44.8-16.6 42.7-19.85 40.6-23.1 36.65-23.1L36.65-23.1ZM76.6-27.05Q79.2-27.05 81.32-25.33 83.45-23.6 84.65-20.65 85.85-17.7 85.85-14.15L85.85-14.15Q85.85-10.3 83.55-6.93 81.25-3.55 77.77-1.55 74.3 0.45 71.05 0.45L71.05 0.45Q68.95 0.45 67.15-0.48 65.35-1.4 64-3.1L64-3.1 61.9 0 60.25 0 60.25-36.15 55.8-39.3 55.8-40.6 64.1-43.65 65.75-43.65 65.75-21.15 72.65-26.6Q74.25-27 76.55-27L76.55-27 76.6-27.05ZM73.9-3.4Q76.85-3.4 78.32-5.5 79.8-7.6 79.8-11.7L79.8-11.7Q79.8-16.5 78.3-19.83 76.8-23.15 74.1-23.15L74.1-23.15Q72.15-23.15 70.32-22.38 68.5-21.6 65.8-19.1L65.8-19.1 65.8-10.1Q65.8-7.25 67.9-5.35 70-3.45 73.95-3.45L73.95-3.45 73.9-3.4ZM106.79-1.75L105.89 0 92.34 0 92.34-1.3 96.79-4.75 96.79-19.95 92.34-23.1 92.34-24.4 100.64-27.45 102.29-27.45 102.29-3.55 106.79-1.75ZM99.29-42.4Q100.69-42.4 101.57-41.35 102.44-40.3 102.44-38.75L102.44-38.75Q102.44-37.65 101.82-36.68 101.19-35.7 100.22-35.13 99.24-34.55 98.34-34.55L98.34-34.55Q96.99-34.55 96.09-35.63 95.19-36.7 95.19-38.25L95.19-38.25Q95.19-39.35 95.82-40.3 96.44-41.25 97.42-41.83 98.39-42.4 99.29-42.4L99.29-42.4ZM130.34-3.9L125.29 0.1Q124.24 0.5 122.74 0.5L122.74 0.5Q118.69 0.5 116.84-1.68 114.99-3.85 114.99-8.4L114.99-8.4 114.99-23.2 109.59-23.2 109.59-25.1 118.84-36.05 120.49-36.05 120.49-25 129.49-25 129.49-23.2 120.49-23.2 120.49-7.6Q120.49-3.45 124.39-3.45L124.39-3.45Q125.44-3.45 126.42-3.9 127.39-4.35 128.84-5.6L128.84-5.6 130.34-3.9ZM149.19-27Q152.44-27 154.99-25.28 157.54-23.55 158.99-20.6 160.44-17.65 160.44-14.1L160.44-14.1Q160.44-10.25 158.14-6.88 155.84-3.5 152.36-1.5 148.89 0.5 145.64 0.5L145.64 0.5Q142.44 0.5 139.86-1.2 137.29-2.9 135.84-5.85 134.39-8.8 134.39-12.35L134.39-12.35Q134.39-16.2 136.69-19.6 138.99-23 142.46-25 145.94-27 149.19-27L149.19-27ZM146.29-23.1Q140.34-23.1 140.34-14.75L140.34-14.75Q140.34-9.9 142.44-6.65 144.54-3.4 148.54-3.4L148.54-3.4Q154.44-3.4 154.44-11.75L154.44-11.75Q154.44-16.6 152.34-19.85 150.24-23.1 146.29-23.1L146.29-23.1Z"
                                            opacity="1"
                                            transform="matrix(1,0,0,1,0,0)"
                                            fill="#ff585f"
                                            class="undefined-text-0"
                                            data-fill-palette-color="primary"
                                            id="text-0"
                                          /></svg></g></svg></g></svg></g></svg></g><g
                            transform="matrix(1,0,0,1,36.672,0)"
                          ><svg
                              viewBox="0 0 118.65600000000003 93.51199343936935"
                              height="93.51199343936935"
                              width="118.65600000000003"
                            ><g><svg
                                  xmlns="http://www.w3.org/2000/svg"
                                  xmlns:xlink="http://www.w3.org/1999/xlink"
                                  version="1.1"
                                  x="0"
                                  y="0"
                                  viewBox="1.481907844543457 12.000807762145996 97.51661682128906 76.85218811035156"
                                  enable-background="new 0 0 100 100"
                                  xml:space="preserve"
                                  height="93.51199343936935"
                                  width="118.65600000000003"
                                  class="icon-icon-0"
                                  data-fill-palette-color="accent"
                                  id="icon-0"
                                ><g
                                    fill="#ff585f"
                                    data-fill-palette-color="accent"
                                  ><path
                                      fill="#ff585f"
                                      d="M76.389 88.853c-3.347 0-7.822-3.262-8.801-4.007l-0.843-0.643 0.353-0.997c0.007-0.02 0.013-0.041 0.019-0.064-0.092 0.014-0.203 0.035-0.34 0.069-1.773 0.449-2.665-0.509-2.964-0.939-1.696-2.439 0.993-7.66 2.65-10.081 0.939-1.368 0.63-2.019-0.045-3.44-0.404-0.85-0.881-1.853-1.016-3.096-1.757 1.729-3.434 2.168-3.589 2.207-0.777 0.187-1.565-0.291-1.753-1.07-0.188-0.774 0.283-1.554 1.053-1.749 0.295-0.081 6.464-1.938 5.472-14.699-1.117-14.421 1.929-17.51 2.55-17.983l1.864-1.417 0.442 2.298c0.729 3.804-0.163 7.029-0.817 9.385-0.27 0.973-0.678 2.445-0.506 2.779 1.893 1.89 0.581 10-0.853 16.468l-0.152 0.397c-1.386 2.467-0.807 3.688-0.071 5.233 0.757 1.597 1.702 3.582-0.184 6.328-1.979 2.889-2.743 5.561-2.693 6.539 1.437-0.341 2.527-0.115 3.237 0.668 0.568 0.623 0.683 1.388 0.651 2.013 2.55 1.796 5.667 3.281 6.721 2.846 0.064-0.028 0.259-0.108 0.344-0.733 0.688-5.041 5.291-6.862 7.861-7.167 1.351-0.648 8.761-4.551 7.381-11.546-1.223-6.204 0.214-9.137 1.603-11.973 0.704-1.44 1.434-2.928 1.87-4.958 1.178-5.457-1.775-8.265-6.413-11.925-1.386-1.094-1.859-1.345-2.089-1.466-0.612-0.324-0.756-0.513-1.552-1.563-0.651-0.859-1.874-2.473-4.394-5.623-6.848-8.556-10.284-7.504-10.318-7.491l-0.863 0.418-0.647-0.664c-0.072-0.062-7.819-6.529-23.166-6.297-12.436 0.191-15.515 1.819-22.31 8.153l-0.225 0.209-0.294 0.101c-0.107 0.038-10.782 3.809-10.782 11.38 0 4.058-1.021 5.349-2.554 6.038l-0.06 0.028c-0.301 0.369-2.444 3.161-1.006 6.037 2.205 4.413 0.611 5.838-2.174 7.799-0.307 0.217-0.638 0.45-0.993 0.708l-0.41 0.301-0.257-0.034c-0.642 0.238-2.138 3.093 0.825 12.487l0.15 0.477-0.175 0.468c0 0.001-0.991 3.354 3.859 8.674 1.624 1.779 1.697 3.398 1.338 4.469 0.617 0.515 1.743 1.219 2.81 1.336 0.808 0.09 1.216-0.201 1.452-0.429 1.105-1.057 1.733-1.854 2.399-2.702 1.017-1.294 2.069-2.633 4.717-4.902 3.148-2.698 2.864-4.387 2.469-6.721-0.064-0.383-0.129-0.764-0.179-1.151-0.052-0.394-0.135-0.877-0.229-1.442-0.614-3.626-1.757-10.375 0.387-18.733 0.927-3.611 0.585-5.357 0.284-6.899-0.536-2.744-0.635-4.534 3.55-9.41 0.525-0.608 1.442-0.677 2.048-0.156 0.608 0.523 0.678 1.439 0.156 2.048-3.474 4.045-3.282 5.02-2.903 6.961 0.324 1.659 0.769 3.931-0.32 8.177-1.992 7.761-0.916 14.113-0.338 17.526 0.104 0.609 0.192 1.13 0.245 1.554 0.047 0.35 0.104 0.695 0.163 1.041 0.426 2.514 0.955 5.642-3.443 9.41-2.431 2.083-3.392 3.308-4.322 4.492-0.699 0.888-1.421 1.808-2.674 3.006-1.701 1.626-4.278 1.663-6.893 0.103-1.118-0.667-2.931-2.001-2.535-3.437 0.08-0.289 0.237-0.538 0.447-0.73 0.005-0.233-0.128-0.744-0.774-1.453-5.08-5.574-4.887-9.646-4.584-11.104-2.099-6.804-2.336-11.547-0.708-14.103 0.653-1.025 1.443-1.449 1.945-1.622 0.289-0.209 0.562-0.402 0.822-0.584 2.402-1.692 2.448-1.725 1.247-4.125-2.263-4.523 0.911-8.637 1.387-9.214 0.345-0.466 0.787-0.665 1.085-0.799 0.272-0.123 0.841-0.377 0.841-3.388 0-8.93 10.469-13.277 12.442-14.017 7.624-7.066 11.743-8.542 24.027-8.731 14.224-0.207 22.276 4.878 24.494 6.52 1.904-0.284 6.217 0.363 12.814 8.603 2.546 3.183 3.782 4.814 4.44 5.684 0.341 0.449 0.489 0.659 0.604 0.775 0.319 0.148 0.928 0.47 2.521 1.728 4.979 3.93 8.977 7.757 7.453 14.817-0.511 2.375-1.356 4.1-2.102 5.623-1.337 2.73-2.394 4.889-1.359 10.134 1.55 7.856-5.38 13.154-9.26 14.857l-0.224 0.098-0.243 0.02c-0.193 0.019-4.915 0.49-5.487 4.692-0.258 1.883-1.29 2.684-2.113 3.024C77.427 88.771 76.922 88.853 76.389 88.853z"
                                      data-fill-palette-color="accent"
                                    /><path
                                      fill="#ff585f"
                                      d="M30.951 68.52c-0.336 0-0.672-0.115-0.946-0.352-0.223-0.192-5.46-4.761-6.007-10.166-0.08-0.798 0.501-1.51 1.299-1.592 0.808-0.073 1.51 0.503 1.592 1.299 0.43 4.244 4.968 8.22 5.013 8.259 0.606 0.525 0.674 1.442 0.148 2.049C31.764 68.35 31.358 68.52 30.951 68.52z"
                                      data-fill-palette-color="accent"
                                    /><path
                                      fill="#ff585f"
                                      d="M35.536 70.396c-0.621 0-1.254-0.071-1.888-0.234-2.357-0.606-4.151-2.332-5.334-5.129-4.612-10.903 4.056-17.94 7.76-20.946 0.587-0.476 1.093-0.887 1.373-1.167 0.294-0.294 0.565-0.547 0.813-0.779 1.472-1.371 1.967-1.833 2.572-9.27 0.725-8.875 0.007-18.525 0-18.623-0.062-0.799 0.537-1.497 1.337-1.558 0.816-0.069 1.498 0.538 1.56 1.337 0.03 0.403 0.743 9.969 0 19.079-0.667 8.168-1.369 9.183-3.487 11.158-0.228 0.21-0.473 0.44-0.74 0.708-0.388 0.387-0.921 0.82-1.598 1.369-3.731 3.029-10.678 8.666-6.915 17.559 0.812 1.919 1.95 3.079 3.384 3.448 2.432 0.628 5.376-1.008 6.732-2.074 1.038-0.948 4.108-3.787 4.895-4.717l1.315-1.552 1.043 1.746c1.115 1.871 4.791 6.715 8.267 6.622 1.946-0.048 3.781-1.661 5.453-4.798 3.345-6.271-0.685-9.851-4.582-13.312-0.605-0.538-1.192-1.06-1.731-1.575-1.296-1.236-2.214-2.016-2.884-2.585-2.024-1.717-2.203-2.083-2.382-4.895-0.052-0.817-0.122-1.915-0.284-3.446l-0.047-0.452c-0.812-7.672-1.514-14.297 1.026-22.954 0.225-0.768 1.032-1.213 1.803-0.984 0.77 0.225 1.211 1.032 0.984 1.802-2.379 8.104-1.738 14.161-0.926 21.83l0.047 0.452c0.169 1.585 0.241 2.722 0.295 3.568 0.115 1.807 0.115 1.807 1.361 2.864 0.698 0.592 1.654 1.404 3.011 2.699 0.516 0.492 1.077 0.99 1.655 1.504 4.067 3.613 9.637 8.562 5.218 16.851-2.205 4.131-4.88 6.263-7.955 6.334-4.348 0.129-8.039-4.11-9.776-6.48-1.517 1.493-3.619 3.411-3.931 3.693C42.233 68.083 39.082 70.396 35.536 70.396z"
                                      data-fill-palette-color="accent"
                                    /><path
                                      fill="#ff585f"
                                      d="M46.271 74.284c-8.109 0-9.518-5.148-9.575-5.372-0.197-0.777 0.272-1.568 1.049-1.766 0.769-0.198 1.553 0.262 1.761 1.025 0.055 0.181 1.061 3.347 7.196 3.201 5.835-0.149 6.575-2.911 6.604-3.028 0.187-0.764 0.951-1.261 1.72-1.097 0.769 0.165 1.271 0.892 1.128 1.665-0.04 0.21-1.057 5.15-9.379 5.363C46.604 74.281 46.436 74.284 46.271 74.284z"
                                      data-fill-palette-color="accent"
                                    /><path
                                      fill="#ff585f"
                                      d="M34.133 42.805L34.133 42.805c-1.785 0-3.269-0.701-3.432-0.781l-0.217-0.107-0.17-0.17c-1.305-1.305-0.352-6.52 0.556-7.429 0.808-0.805 3.585-1.734 4.791-1.734 1.144 0 1.564 0.702 1.693 1.003-0.015-0.036 0.047 0.039 0.13 0.157 0.811 1.14 3.271 4.609 0.64 7.412C37.11 42.235 35.73 42.805 34.133 42.805zM32.56 39.635c0.402 0.128 0.974 0.266 1.573 0.266l0 0c0.798 0 1.41-0.24 1.876-0.733 0.695-0.743 0.466-1.795-0.802-3.612-0.682 0.154-1.753 0.538-2.204 0.785C32.761 37.009 32.537 38.743 32.56 39.635z"
                                      data-fill-palette-color="accent"
                                    /><path
                                      fill="#ff585f"
                                      d="M34.44 41.475L34.44 41.475l-0.124-0.003c-1.274-0.086-3.016-0.518-3.434-3.254-0.352-2.271 1.693-3.677 3.154-4.067l0.154-0.032c1.674-0.257 3.489 0.91 3.489 3.39 0 1.069-0.378 2.078-1.062 2.843C35.987 41.055 35.175 41.475 34.44 41.475zM34.661 36.981c-0.151 0.049-0.959 0.46-0.907 0.793 0.086 0.57 0.217 0.71 0.219 0.711 0.013 0.008 0.083 0.041 0.323 0.068 0.152-0.11 0.479-0.421 0.479-1.047C34.775 37.152 34.686 37.003 34.661 36.981z"
                                      data-fill-palette-color="accent"
                                    /><path
                                      fill="#ff585f"
                                      d="M58.315 42.805c-1.597 0-2.978-0.57-3.99-1.65-2.631-2.801-0.172-6.269 0.637-7.409 0.079-0.112 0.146-0.201 0.185-0.264 0.079-0.202 0.503-0.898 1.643-0.898 1.207 0 3.986 0.93 4.789 1.734 0.193 0.194 0.792 0.792 1.112 3.546 0.346 2.981-0.264 3.59-0.556 3.882l-0.17 0.17-0.217 0.107C61.585 42.104 60.101 42.805 58.315 42.805zM57.241 35.555c-1.267 1.818-1.497 2.87-0.8 3.612 0.465 0.494 1.078 0.733 1.874 0.733 0.601 0 1.171-0.137 1.575-0.266 0.022-0.901-0.208-2.662-0.453-3.315C59.052 36.108 57.943 35.712 57.241 35.555z"
                                      data-fill-palette-color="accent"
                                    /><path
                                      fill="#ff585f"
                                      d="M58.005 41.475c-1.352 0-3.235-1.509-3.235-3.967 0-2.478 1.811-3.651 3.485-3.39l0.152 0.032c1.462 0.387 3.509 1.79 3.159 4.069-0.421 2.736-2.161 3.167-3.433 3.253L58.005 41.475zM57.793 37c-0.052 0.044-0.119 0.199-0.119 0.507 0 0.625 0.325 0.937 0.478 1.047 0.241-0.027 0.312-0.06 0.33-0.072l0 0c-0.001 0 0.128-0.141 0.215-0.707C58.742 37.484 58.134 37.135 57.793 37z"
                                      data-fill-palette-color="accent"
                                    /><path
                                      fill="#ff585f"
                                      d="M49.95 62.46c-0.578 0-1.216-0.245-1.659-0.86-0.89 0.446-2.079 0.286-2.718-0.419-0.001-0.001-0.001-0.003-0.003-0.004-0.593 0.579-1.298 0.903-2.016 0.903-0.413 0-2.483-0.166-2.63-3.433-0.015-0.223-0.12-2.484 1.161-4.302l0.225-0.252c0.089-0.079 2.223-1.932 5.376-1.932 1.844 0 3.643 0.619 5.346 1.84l0.387 0.277 0.147 0.453c0.078 0.24 0.739 2.419-0.185 4.755C53 60.456 51.656 62.46 49.95 62.46zM48.362 56.988c0.924 0 1.684 0.715 2.073 1.882 0.101-0.147 0.188-0.303 0.246-0.45 0.359-0.907 0.298-1.831 0.215-2.355-1.058-0.663-2.136-0.999-3.21-0.999-1.671 0-2.931 0.818-3.33 1.11-0.489 0.82-0.551 1.938-0.531 2.32 0.003 0.071 0.009 0.137 0.013 0.197 0.442-0.785 1.156-1.815 2.282-1.815 0.448 0 0.868 0.169 1.192 0.48C47.612 57.118 47.976 56.988 48.362 56.988z"
                                      data-fill-palette-color="accent"
                                    /></g></svg></g></svg></g><g
                          /></svg></g></svg></g></svg></g></svg></g><defs
          /></svg><rect
          width="320"
          height="360"
          fill="none"
          stroke="none"
          visibility="hidden"
        /></g></svg></g></svg>
